<svg width="389" height="411" viewBox="0 0 389 411" fill="none" xmlns="http://www.w3.org/2000/svg">
<path d="M280.777 6.52512C296.23 11.0363 311.335 18.7239 320.572 31.7224C328.463 42.8277 332.695 56.9264 336.071 71.5785C339.431 86.1626 341.951 101.359 346.442 114.34C353.228 133.955 360.255 153.066 365.194 173.185C371.847 200.284 380.035 229.402 384.33 258.667C388.623 287.918 389.006 317.215 380.093 344.616C370.059 375.459 345.386 402.99 313.881 408.715C289.387 413.161 264.213 404.234 242.731 391.262L242.732 391.262C231.993 384.774 221.896 377.299 211.812 369.719C201.739 362.148 191.674 354.469 181.049 347.623C138.683 320.326 89.0818 307.231 41.4767 291.523C33.3081 288.827 24.7271 285.556 17.5539 280.928C10.3881 276.306 4.69218 270.373 2.18086 262.377C-1.79651 249.713 4.06017 235.422 13.575 225.797C23.0972 216.164 35.6677 210.297 48.0788 204.408C52.6764 202.227 57.9191 199.603 60.4724 194.717L60.4736 194.716C62.4393 190.952 62.4149 186.549 62.1423 182.586C61.4828 173.012 59.4787 163.446 58.0038 154.049C56.5224 144.611 55.5602 135.28 56.9024 125.967C59.8833 105.291 73.7904 87.8637 88.6689 72.8448C139.021 22.0168 212.817 -13.3142 280.777 6.52512Z" stroke="#F2C75C" stroke-width="1.832"/>
</svg>
