<svg preserveAspectRatio="none" width="100%" height="100%" overflow="visible" style="display: block;" viewBox="0 0 154.544 152.853" fill="none" xmlns="http://www.w3.org/2000/svg">
<path id="Line Back" d="M81.1611 0.467773C87.4843 0.566268 93.9913 1.9038 98.8271 5.85059C102.964 9.22673 106.033 14.1193 108.842 19.3242C111.634 24.4982 114.183 30.012 117.245 34.4736C121.868 41.2091 126.525 47.7212 130.496 54.833C135.85 64.4232 141.992 74.6087 146.673 85.2568C151.351 95.8991 154.548 106.957 154.027 118.261C153.441 130.984 146.966 143.964 135.654 149.403C126.858 153.631 116.404 152.879 106.911 150.202C102.166 148.863 97.559 147.083 92.9424 145.26C88.332 143.439 83.7077 141.575 78.958 140.085C60.0207 134.146 39.8177 134.355 20.127 133.364C16.7486 133.194 13.1622 132.848 9.9707 131.846C6.78358 130.844 4.02718 129.199 2.25684 126.454C-0.546616 122.107 0.170341 116.116 2.76465 111.49C5.36158 106.86 9.50349 103.334 13.6006 99.8018C15.1131 98.4979 16.8574 96.9347 17.3242 94.7764C17.6837 93.1134 17.2048 91.4221 16.6875 89.9463C15.4362 86.3774 13.6731 82.9485 12.1357 79.5439C10.5896 76.12 9.25672 72.691 8.7959 69.0332C7.77321 60.9123 11.2154 52.874 15.291 45.626C29.0801 21.1035 53.3607 0.0351123 81.1611 0.467773Z" stroke="var(--stroke-0, #F2C75C)" stroke-width="0.921747"/>
</svg>
