<svg preserveAspectRatio="none" width="100%" height="100%" overflow="visible" style="display: block;" viewBox="0 0 5.15882 5.15882" fill="none" xmlns="http://www.w3.org/2000/svg">
<path id="Vector" d="M0.128411 2.75824L1.06952 3.07578C1.54676 3.23733 1.92225 3.61207 2.08305 4.0893L2.40059 5.03041C2.45852 5.20163 2.69993 5.20163 2.75824 5.03041L3.07578 4.0893C3.23733 3.61206 3.61207 3.23657 4.0893 3.07578L5.03041 2.75824C5.20163 2.7003 5.20163 2.4589 5.03041 2.40059L4.0893 2.08305C3.61206 1.92149 3.23657 1.54675 3.07578 1.06952L2.75824 0.128411C2.7003 -0.0428038 2.4589 -0.0428038 2.40059 0.128411L2.08305 1.06952C1.92149 1.54676 1.54675 1.92225 1.06952 2.08305L0.128411 2.40059C-0.0428038 2.45852 -0.0428038 2.69993 0.128411 2.75824Z" fill="var(--fill-0, #D9E8ED)"/>
</svg>
