<svg preserveAspectRatio="none" width="100%" height="100%" overflow="visible" style="display: block;" viewBox="0 0 48 48" fill="none" xmlns="http://www.w3.org/2000/svg">
<path id="person_apron" d="M24 24C20.7 24 17.875 22.825 15.525 20.475C13.175 18.125 12 15.3 12 12C12 8.7 13.175 5.875 15.525 3.525C17.875 1.175 20.7 0 24 0C27.3 0 30.125 1.175 32.475 3.525C34.825 5.875 36 8.7 36 12C36 15.3 34.825 18.125 32.475 20.475C30.125 22.825 27.3 24 24 24ZM36 48V28.8C37.25 29.2 38.475 29.625 39.675 30.075C40.875 30.525 42.05 31.05 43.2 31.65C44.7 32.4 45.875 33.4875 46.725 34.9125C47.575 36.3375 48 37.9 48 39.6V42C48 43.65 47.4125 45.0625 46.2375 46.2375C45.0625 47.4125 43.65 48 42 48H36ZM18 37.5V27.45C19 27.3 20 27.1875 21 27.1125C22 27.0375 23 27 24 27C25 27 26 27.0375 27 27.1125C28 27.1875 29 27.3 30 27.45V37.5H18ZM0 42V39.6C0 37.9 0.425 36.3375 1.275 34.9125C2.125 33.4875 3.3 32.4 4.8 31.65C5.95 31.05 7.125 30.525 8.325 30.075C9.525 29.625 10.75 29.2 12 28.8V48H6C4.35 48 2.9375 47.4125 1.7625 46.2375C0.5875 45.0625 0 43.65 0 42Z" fill="var(--fill-0, #94C9D1)"/>
</svg>
