<svg preserveAspectRatio="none" width="100%" height="100%" overflow="visible" style="display: block;" viewBox="0 0 8.33348 8.33348" fill="none" xmlns="http://www.w3.org/2000/svg">
<path id="Vector" d="M0.207434 4.45561L1.72769 4.96856C2.49862 5.22954 3.10518 5.83488 3.36492 6.60579L3.87787 8.12605C3.97146 8.40263 4.36142 8.40263 4.45561 8.12605L4.96856 6.60579C5.22954 5.83487 5.83488 5.22831 6.60579 4.96856L8.12605 4.45561C8.40263 4.36202 8.40263 3.97206 8.12605 3.87787L6.60579 3.36492C5.83486 3.10395 5.22831 2.4986 4.96856 1.72769L4.45561 0.207434C4.36202 -0.0691445 3.97206 -0.0691445 3.87787 0.207434L3.36492 1.72769C3.10395 2.49862 2.4986 3.10518 1.72769 3.36492L0.207434 3.87787C-0.0691445 3.97146 -0.0691445 4.36142 0.207434 4.45561Z" fill="var(--fill-0, white)"/>
</svg>
