<svg preserveAspectRatio="none" width="100%" height="100%" overflow="visible" style="display: block;" viewBox="0 0 60.0972 60.0813" fill="none" xmlns="http://www.w3.org/2000/svg">
<path id="ads_click" d="M30 18C26.7 18 23.875 19.175 21.525 21.525C19.175 23.875 18 26.7 18 30C18 32.25 18.5625 34.325 19.6875 36.225C20.8125 38.125 22.375 39.6 24.375 40.65C25.175 41.05 25.7375 41.6375 26.0625 42.4125C26.3875 43.1875 26.375 43.975 26.025 44.775C25.675 45.475 25.15 46 24.45 46.35C23.75 46.7 23.05 46.7 22.35 46.35C19.2 44.85 16.6875 42.625 14.8125 39.675C12.9375 36.725 12 33.5 12 30C12 25 13.75 20.75 17.25 17.25C20.75 13.75 25 12 30 12C33.55 12 36.8125 12.9375 39.7875 14.8125C42.7625 16.6875 44.975 19.25 46.425 22.5C46.725 23.2 46.7125 23.9 46.3875 24.6C46.0625 25.3 45.55 25.8 44.85 26.1C44.05 26.45 43.25 26.45 42.45 26.1C41.65 25.75 41.05 25.175 40.65 24.375C39.6 22.375 38.125 20.8125 36.225 19.6875C34.325 18.5625 32.25 18 30 18ZM30 6C23.3 6 17.625 8.325 12.975 12.975C8.325 17.625 6 23.3 6 30C6 36.3 8.075 41.7 12.225 46.2C16.375 50.7 21.575 53.25 27.825 53.85C28.675 53.95 29.4125 54.325 30.0375 54.975C30.6625 55.625 30.95 56.375 30.9 57.225C30.85 58.075 30.5375 58.775 29.9625 59.325C29.3875 59.875 28.675 60.125 27.825 60.075C23.925 59.825 20.2875 58.85 16.9125 57.15C13.5375 55.45 10.5875 53.2375 8.0625 50.5125C5.5375 47.7875 3.5625 44.6625 2.1375 41.1375C0.7125 37.6125 0 33.9 0 30C0 25.85 0.7875 21.95 2.3625 18.3C3.9375 14.65 6.075 11.475 8.775 8.775C11.475 6.075 14.65 3.9375 18.3 2.3625C21.95 0.7875 25.85 0 30 0C37.85 0 44.6875 2.675 50.5125 8.025C56.3375 13.375 59.525 19.975 60.075 27.825C60.175 28.625 59.9375 29.3125 59.3625 29.8875C58.7875 30.4625 58.075 30.775 57.225 30.825C56.375 30.875 55.6125 30.6 54.9375 30C54.2625 29.4 53.875 28.675 53.775 27.825C53.025 21.825 50.4125 16.6875 45.9375 12.4125C41.4625 8.1375 36.15 6 30 6ZM52.65 58.5L42.75 48.675L40.5 55.5C40.25 56.2 39.775 56.5375 39.075 56.5125C38.375 56.4875 37.9 56.125 37.65 55.425L30.825 32.7C30.625 32.15 30.75 31.65 31.2 31.2C31.65 30.75 32.15 30.625 32.7 30.825L55.425 37.65C56.125 37.9 56.4875 38.375 56.5125 39.075C56.5375 39.775 56.2 40.25 55.5 40.5L48.675 42.75L58.575 52.65C59.425 53.5 59.85 54.475 59.85 55.575C59.85 56.675 59.425 57.65 58.575 58.5C57.725 59.35 56.7375 59.775 55.6125 59.775C54.4875 59.775 53.5 59.35 52.65 58.5Z" fill="var(--fill-0, #94C9D1)"/>
</svg>
