<svg preserveAspectRatio="none" width="100%" height="100%" overflow="visible" style="display: block;" viewBox="0 0 60 48" fill="none" xmlns="http://www.w3.org/2000/svg">
<path id="folder_special" d="M6 48C4.35 48 2.9375 47.4125 1.7625 46.2375C0.5875 45.0625 0 43.65 0 42V6C0 4.35 0.5875 2.9375 1.7625 1.7625C2.9375 0.5875 4.35 0 6 0H21.525C22.325 0 23.0875 0.15 23.8125 0.45C24.5375 0.75 25.175 1.175 25.725 1.725L30 6H54C55.65 6 57.0625 6.5875 58.2375 7.7625C59.4125 8.9375 60 10.35 60 12V42C60 43.65 59.4125 45.0625 58.2375 46.2375C57.0625 47.4125 55.65 48 54 48H6ZM38.7 32.85L43.8 36.675C44.1 36.925 44.3875 36.95 44.6625 36.75C44.9375 36.55 45.025 36.275 44.925 35.925L43.05 29.55L48.3 25.35C48.55 25.1 48.625 24.8125 48.525 24.4875C48.425 24.1625 48.2 24 47.85 24H41.4L39.45 17.85C39.35 17.5 39.1 17.325 38.7 17.325C38.3 17.325 38.05 17.5 37.95 17.85L36 24H29.55C29.2 24 28.975 24.1625 28.875 24.4875C28.775 24.8125 28.85 25.1 29.1 25.35L34.35 29.55L32.475 35.925C32.375 36.275 32.4625 36.55 32.7375 36.75C33.0125 36.95 33.3 36.925 33.6 36.675L38.7 32.85Z" fill="var(--fill-0, #94C9D1)"/>
</svg>
