<svg preserveAspectRatio="none" width="100%" height="100%" overflow="visible" style="display: block;" viewBox="0 0 42.0147 59.5189" fill="none" xmlns="http://www.w3.org/2000/svg">
<path id="bolt" d="M12.3515 38.6348H3.05147C1.85147 38.6348 0.963971 38.0973 0.388971 37.0223C-0.186029 35.9473 -0.123529 34.9098 0.576471 33.9098L23.0015 1.65978C23.5015 0.959783 24.1515 0.472283 24.9515 0.197283C25.7515 -0.0777174 26.5765 -0.0652174 27.4265 0.234783C28.2765 0.534783 28.9015 1.05978 29.3015 1.80978C29.7015 2.55978 29.8515 3.35978 29.7515 4.20978L27.3515 23.6348H38.9765C40.2765 23.6348 41.189 24.2098 41.714 25.3598C42.239 26.5098 42.0765 27.5848 41.2265 28.5848L16.5515 58.1348C16.0015 58.7848 15.3265 59.2098 14.5265 59.4098C13.7265 59.6098 12.9515 59.5348 12.2015 59.1848C11.4515 58.8348 10.864 58.2973 10.439 57.5723C10.014 56.8473 9.85147 56.0598 9.95147 55.2098L12.3515 38.6348Z" fill="var(--fill-0, #94C9D1)"/>
</svg>
