<svg preserveAspectRatio="none" width="100%" height="100%" overflow="visible" style="display: block;" viewBox="0 0 60 60" fill="none" xmlns="http://www.w3.org/2000/svg">
<path id="percent_discount" d="M30 60C28.8 60 27.65 59.775 26.55 59.325C25.45 58.875 24.475 58.225 23.625 57.375C22.175 55.925 20.925 54.975 19.875 54.525C18.825 54.075 17.25 53.85 15.15 53.85C12.65 53.85 10.525 52.975 8.775 51.225C7.025 49.475 6.15 47.35 6.15 44.85C6.15 42.75 5.925 41.175 5.475 40.125C5.025 39.075 4.075 37.825 2.625 36.375C1.775 35.525 1.125 34.55 0.675 33.45C0.225 32.35 0 31.2 0 30C0 28.8 0.225 27.65 0.675 26.55C1.125 25.45 1.775 24.475 2.625 23.625C4.075 22.175 5.025 20.925 5.475 19.875C5.925 18.825 6.15 17.25 6.15 15.15C6.15 12.65 7.025 10.525 8.775 8.775C10.525 7.025 12.65 6.15 15.15 6.15C17.25 6.15 18.825 5.925 19.875 5.475C20.925 5.025 22.175 4.075 23.625 2.625C24.475 1.775 25.45 1.125 26.55 0.675C27.65 0.225 28.8 0 30 0C31.2 0 32.35 0.225 33.45 0.675C34.55 1.125 35.525 1.775 36.375 2.625C37.825 4.075 39.075 5.025 40.125 5.475C41.175 5.925 42.75 6.15 44.85 6.15C47.35 6.15 49.475 7.025 51.225 8.775C52.975 10.525 53.85 12.65 53.85 15.15C53.85 17.25 54.075 18.825 54.525 19.875C54.975 20.925 55.925 22.175 57.375 23.625C58.225 24.475 58.875 25.45 59.325 26.55C59.775 27.65 60 28.8 60 30C60 31.2 59.775 32.35 59.325 33.45C58.875 34.55 58.225 35.525 57.375 36.375C55.925 37.825 54.975 39.075 54.525 40.125C54.075 41.175 53.85 42.75 53.85 44.85C53.85 47.35 52.975 49.475 51.225 51.225C49.475 52.975 47.35 53.85 44.85 53.85C42.75 53.85 41.175 54.075 40.125 54.525C39.075 54.975 37.825 55.925 36.375 57.375C35.525 58.225 34.55 58.875 33.45 59.325C32.35 59.775 31.2 60 30 60ZM37.5 42C38.75 42 39.8125 41.5625 40.6875 40.6875C41.5625 39.8125 42 38.75 42 37.5C42 36.25 41.5625 35.1875 40.6875 34.3125C39.8125 33.4375 38.75 33 37.5 33C36.25 33 35.1875 33.4375 34.3125 34.3125C33.4375 35.1875 33 36.25 33 37.5C33 38.75 33.4375 39.8125 34.3125 40.6875C35.1875 41.5625 36.25 42 37.5 42ZM20.25 39.75C20.85 40.35 21.55 40.65 22.35 40.65C23.15 40.65 23.85 40.35 24.45 39.75L39.75 24.525C40.35 23.925 40.65 23.2125 40.65 22.3875C40.65 21.5625 40.35 20.85 39.75 20.25C39.15 19.65 38.4375 19.35 37.6125 19.35C36.7875 19.35 36.075 19.65 35.475 20.25L20.25 35.55C19.65 36.15 19.35 36.85 19.35 37.65C19.35 38.45 19.65 39.15 20.25 39.75ZM22.5 27C23.75 27 24.8125 26.5625 25.6875 25.6875C26.5625 24.8125 27 23.75 27 22.5C27 21.25 26.5625 20.1875 25.6875 19.3125C24.8125 18.4375 23.75 18 22.5 18C21.25 18 20.1875 18.4375 19.3125 19.3125C18.4375 20.1875 18 21.25 18 22.5C18 23.75 18.4375 24.8125 19.3125 25.6875C20.1875 26.5625 21.25 27 22.5 27Z" fill="var(--fill-0, #94C9D1)"/>
</svg>
