<svg preserveAspectRatio="none" width="100%" height="100%" overflow="visible" style="display: block;" viewBox="0 0 3.57149 3.57149" fill="none" xmlns="http://www.w3.org/2000/svg">
<path id="Vector" d="M0.0889001 1.90955L0.740439 2.12938C1.07084 2.24123 1.33079 2.50066 1.44211 2.83105L1.66194 3.48259C1.70205 3.60113 1.86918 3.60113 1.90955 3.48259L2.12938 2.83105C2.24123 2.50066 2.50066 2.2407 2.83105 2.12938L3.48259 1.90955C3.60113 1.86944 3.60113 1.70231 3.48259 1.66194L2.83105 1.44211C2.50066 1.33026 2.2407 1.07083 2.12938 0.740439L1.90955 0.0889001C1.86944 -0.0296334 1.70231 -0.0296334 1.66194 0.0889001L1.44211 0.740439C1.33026 1.07084 1.07083 1.33079 0.740439 1.44211L0.0889001 1.66194C-0.0296334 1.70205 -0.0296334 1.86918 0.0889001 1.90955Z" fill="var(--fill-0, #D9E8ED)"/>
</svg>
