<svg preserveAspectRatio="none" width="100%" height="100%" overflow="visible" style="display: block;" viewBox="0 0 72 36" fill="none" xmlns="http://www.w3.org/2000/svg">
<path id="groups" d="M3 36C2.15 36 1.4375 35.7125 0.8625 35.1375C0.2875 34.5625 0 33.85 0 33V31.275C0 29.125 1.1 27.375 3.3 26.025C5.5 24.675 8.4 24 12 24C12.65 24 13.275 24.0125 13.875 24.0375C14.475 24.0625 15.05 24.125 15.6 24.225C14.9 25.275 14.375 26.375 14.025 27.525C13.675 28.675 13.5 29.875 13.5 31.125V36H3ZM21 36C20.15 36 19.4375 35.7125 18.8625 35.1375C18.2875 34.5625 18 33.85 18 33V31.125C18 29.525 18.4375 28.0625 19.3125 26.7375C20.1875 25.4125 21.425 24.25 23.025 23.25C24.625 22.25 26.5375 21.5 28.7625 21C30.9875 20.5 33.4 20.25 36 20.25C38.65 20.25 41.0875 20.5 43.3125 21C45.5375 21.5 47.45 22.25 49.05 23.25C50.65 24.25 51.875 25.4125 52.725 26.7375C53.575 28.0625 54 29.525 54 31.125V33C54 33.85 53.7125 34.5625 53.1375 35.1375C52.5625 35.7125 51.85 36 51 36H21ZM58.5 36V31.125C58.5 29.825 58.3375 28.6 58.0125 27.45C57.6875 26.3 57.2 25.225 56.55 24.225C57.1 24.125 57.6625 24.0625 58.2375 24.0375C58.8125 24.0125 59.4 24 60 24C63.6 24 66.5 24.6625 68.7 25.9875C70.9 27.3125 72 29.075 72 31.275V33C72 33.85 71.7125 34.5625 71.1375 35.1375C70.5625 35.7125 69.85 36 69 36H58.5ZM12 21C10.35 21 8.9375 20.4125 7.7625 19.2375C6.5875 18.0625 6 16.65 6 15C6 13.3 6.5875 11.875 7.7625 10.725C8.9375 9.575 10.35 9 12 9C13.7 9 15.125 9.575 16.275 10.725C17.425 11.875 18 13.3 18 15C18 16.65 17.425 18.0625 16.275 19.2375C15.125 20.4125 13.7 21 12 21ZM60 21C58.35 21 56.9375 20.4125 55.7625 19.2375C54.5875 18.0625 54 16.65 54 15C54 13.3 54.5875 11.875 55.7625 10.725C56.9375 9.575 58.35 9 60 9C61.7 9 63.125 9.575 64.275 10.725C65.425 11.875 66 13.3 66 15C66 16.65 65.425 18.0625 64.275 19.2375C63.125 20.4125 61.7 21 60 21ZM36 18C33.5 18 31.375 17.125 29.625 15.375C27.875 13.625 27 11.5 27 9C27 6.45 27.875 4.3125 29.625 2.5875C31.375 0.8625 33.5 0 36 0C38.55 0 40.6875 0.8625 42.4125 2.5875C44.1375 4.3125 45 6.45 45 9C45 11.5 44.1375 13.625 42.4125 15.375C40.6875 17.125 38.55 18 36 18Z" fill="var(--fill-0, #94C9D1)"/>
</svg>
