<svg preserveAspectRatio="none" width="100%" height="100%" overflow="visible" style="display: block;" viewBox="0 0 54 63" fill="none" xmlns="http://www.w3.org/2000/svg">
<path id="local_mall" d="M6 63C4.35 63 2.9375 62.4125 1.7625 61.2375C0.5875 60.0625 0 58.65 0 57V21C0 19.35 0.5875 17.9375 1.7625 16.7625C2.9375 15.5875 4.35 15 6 15H12C12 10.85 13.4625 7.3125 16.3875 4.3875C19.3125 1.4625 22.85 0 27 0C31.15 0 34.6875 1.4625 37.6125 4.3875C40.5375 7.3125 42 10.85 42 15H48C49.65 15 51.0625 15.5875 52.2375 16.7625C53.4125 17.9375 54 19.35 54 21V57C54 58.65 53.4125 60.0625 52.2375 61.2375C51.0625 62.4125 49.65 63 48 63H6ZM18 15H36C36 12.5 35.125 10.375 33.375 8.625C31.625 6.875 29.5 6 27 6C24.5 6 22.375 6.875 20.625 8.625C18.875 10.375 18 12.5 18 15ZM26.925 39C30.625 39 33.975 37.775 36.975 35.325C39.975 32.875 41.45 30.125 41.4 27.075C41.4 26.225 41.125 25.5 40.575 24.9C40.025 24.3 39.325 24 38.475 24C37.775 24 37.15 24.225 36.6 24.675C36.05 25.125 35.65 25.8 35.4 26.7C34.85 28.6 33.775 30.125 32.175 31.275C30.575 32.425 28.825 33 26.925 33C25.025 33 23.2625 32.425 21.6375 31.275C20.0125 30.125 18.95 28.6 18.45 26.7C18.2 25.75 17.825 25.0625 17.325 24.6375C16.825 24.2125 16.225 24 15.525 24C14.675 24 13.9625 24.3 13.3875 24.9C12.8125 25.5 12.525 26.225 12.525 27.075C12.525 30.125 14 32.875 16.95 35.325C19.9 37.775 23.225 39 26.925 39Z" fill="var(--fill-0, #94C9D1)"/>
</svg>
