<svg preserveAspectRatio="none" width="100%" height="100%" overflow="visible" style="display: block;" viewBox="0 0 55.8214 60" fill="none" xmlns="http://www.w3.org/2000/svg">
<path id="soup_kitchen" d="M20.2714 60C15.2214 60 10.7839 58.3125 6.95893 54.9375C3.13393 51.5625 0.821429 47.375 0.0214286 42.375C-0.0785714 41.475 0.171429 40.6875 0.771429 40.0125C1.37143 39.3375 2.12143 39 3.02143 39H34.5964L37.8964 7.95C38.1464 5.7 39.1089 3.8125 40.7839 2.2875C42.4589 0.7625 44.4714 0 46.8214 0C49.3214 0 51.4464 0.875 53.1964 2.625C54.9464 4.375 55.8214 6.5 55.8214 9V9.75C55.8214 10.6 55.5339 11.3125 54.9589 11.8875C54.3839 12.4625 53.6714 12.75 52.8214 12.75C51.9714 12.75 51.2589 12.4625 50.6839 11.8875C50.1089 11.3125 49.8214 10.6 49.8214 9.75V9C49.8214 8.15 49.5339 7.4375 48.9589 6.8625C48.3839 6.2875 47.6714 6 46.8214 6C46.0214 6 45.3464 6.2625 44.7964 6.7875C44.2464 7.3125 43.9214 7.95 43.8214 8.7L40.3714 41.325C39.8214 46.625 37.6464 51.0625 33.8464 54.6375C30.0464 58.2125 25.5214 60 20.2714 60ZM9.54643 34.5C8.69643 34.5 8.09643 34.2625 7.74643 33.7875C7.39643 33.3125 7.27143 32.675 7.37143 31.875C7.42143 31.425 7.45893 31.0625 7.48393 30.7875C7.50893 30.5125 7.52143 30.25 7.52143 30C7.52143 28.5 7.02143 26.6 6.02143 24.3C5.02143 22 4.52143 20.275 4.52143 19.125C4.52143 18.675 4.54643 18.2125 4.59643 17.7375C4.64643 17.2625 4.79643 16.8 5.04643 16.35C5.24643 15.95 5.52143 15.625 5.87143 15.375C6.22143 15.125 6.59643 15 6.99643 15C7.79643 15 8.40893 15.2375 8.83393 15.7125C9.25893 16.1875 9.37143 16.825 9.17143 17.625C9.07143 18.075 9.02143 18.575 9.02143 19.125C9.02143 20.275 9.52143 22 10.5214 24.3C11.5214 26.6 12.0214 28.5 12.0214 30C12.0214 30.75 11.9714 31.375 11.8714 31.875C11.7714 32.375 11.6464 32.8 11.4964 33.15C11.2964 33.55 11.0214 33.875 10.6714 34.125C10.3214 34.375 9.94643 34.5 9.54643 34.5ZM29.0464 34.5C28.1964 34.5 27.5964 34.2625 27.2464 33.7875C26.8964 33.3125 26.7714 32.675 26.8714 31.875C26.9214 31.425 26.9589 31.0625 26.9839 30.7875C27.0089 30.5125 27.0214 30.25 27.0214 30C27.0214 28.5 26.5214 26.6 25.5214 24.3C24.5214 22 24.0214 20.275 24.0214 19.125C24.0214 18.675 24.0464 18.2125 24.0964 17.7375C24.1464 17.2625 24.2964 16.8 24.5464 16.35C24.7464 15.95 25.0214 15.625 25.3714 15.375C25.7214 15.125 26.0964 15 26.4964 15C27.2964 15 27.9089 15.2375 28.3339 15.7125C28.7589 16.1875 28.8714 16.825 28.6714 17.625C28.5714 18.075 28.5214 18.575 28.5214 19.125C28.5214 20.275 29.0214 22 30.0214 24.3C31.0214 26.6 31.5214 28.5 31.5214 30C31.5214 30.75 31.4714 31.375 31.3714 31.875C31.2714 32.375 31.1464 32.8 30.9964 33.15C30.7964 33.55 30.5214 33.875 30.1714 34.125C29.8214 34.375 29.4464 34.5 29.0464 34.5ZM19.2964 34.5C18.4464 34.5 17.8464 34.2625 17.4964 33.7875C17.1464 33.3125 17.0214 32.675 17.1214 31.875C17.1714 31.425 17.2089 31.0625 17.2339 30.7875C17.2589 30.5125 17.2714 30.25 17.2714 30C17.2714 28.5 16.7714 26.6 15.7714 24.3C14.7714 22 14.2714 20.275 14.2714 19.125C14.2714 18.675 14.2964 18.2125 14.3464 17.7375C14.3964 17.2625 14.5464 16.8 14.7964 16.35C14.9964 15.95 15.2714 15.625 15.6214 15.375C15.9714 15.125 16.3464 15 16.7464 15C17.5464 15 18.1589 15.2375 18.5839 15.7125C19.0089 16.1875 19.1214 16.825 18.9214 17.625C18.8214 18.075 18.7714 18.575 18.7714 19.125C18.7714 20.275 19.2714 22 20.2714 24.3C21.2714 26.6 21.7714 28.5 21.7714 30C21.7714 30.75 21.7214 31.375 21.6214 31.875C21.5214 32.375 21.3964 32.8 21.2464 33.15C21.0464 33.55 20.7714 33.875 20.4214 34.125C20.0714 34.375 19.6964 34.5 19.2964 34.5Z" fill="var(--fill-0, #94C9D1)"/>
</svg>
