<svg preserveAspectRatio="none" width="100%" height="100%" overflow="visible" style="display: block;" viewBox="0 0 55.8 49.8" fill="none" xmlns="http://www.w3.org/2000/svg">
<path id="chat_paste_go_2" d="M45.525 42H36C35.15 42 34.4375 41.7125 33.8625 41.1375C33.2875 40.5625 33 39.85 33 39C33 38.15 33.2875 37.4375 33.8625 36.8625C34.4375 36.2875 35.15 36 36 36H45.525L42.9 33.375C42.35 32.775 42.0625 32.0625 42.0375 31.2375C42.0125 30.4125 42.3 29.7 42.9 29.1C43.5 28.5 44.2 28.2 45 28.2C45.8 28.2 46.5 28.5 47.1 29.1L54.9 36.9C55.5 37.5 55.8 38.2 55.8 39C55.8 39.8 55.5 40.5 54.9 41.1L47.1 48.9C46.5 49.5 45.8 49.8 45 49.8C44.2 49.8 43.5 49.5 42.9 48.9C42.3 48.3 42.0125 47.5875 42.0375 46.7625C42.0625 45.9375 42.35 45.225 42.9 44.625L45.525 42ZM9 42L2.55 48.45C2.05 48.95 1.5 49.075 0.9 48.825C0.3 48.575 0 48.1 0 47.4V6C0 4.35 0.5875 2.9375 1.7625 1.7625C2.9375 0.5875 4.35 0 6 0H42C43.65 0 45.0625 0.5875 46.2375 1.7625C47.4125 2.9375 48 4.35 48 6V19.05C48 19.65 47.7875 20.1375 47.3625 20.5125C46.9375 20.8875 46.425 21.05 45.825 21C43.275 20.9 40.8375 21.2875 38.5125 22.1625C36.1875 23.0375 34.1 24.4 32.25 26.25C30.45 28.1 29.1 30.1875 28.2 32.5125C27.3 34.8375 26.9 37.275 27 39.825C27.05 40.425 26.875 40.9375 26.475 41.3625C26.075 41.7875 25.6 42 25.05 42H9Z" fill="var(--fill-0, #94C9D1)"/>
</svg>
