<svg preserveAspectRatio="none" width="100%" height="100%" overflow="visible" style="display: block;" viewBox="0 0 43.5 60" fill="none" xmlns="http://www.w3.org/2000/svg">
<path id="emoji_objects" d="M21.75 60C20.45 60 19.275 59.6875 18.225 59.0625C17.175 58.4375 16.35 57.6 15.75 56.55C14.1 56.55 12.6875 55.9625 11.5125 54.7875C10.3375 53.6125 9.75 52.2 9.75 50.55V39.9C6.8 37.95 4.4375 35.375 2.6625 32.175C0.8875 28.975 0 25.5 0 21.75C0 15.7 2.1125 10.5625 6.3375 6.3375C10.5625 2.1125 15.7 0 21.75 0C27.8 0 32.9375 2.1125 37.1625 6.3375C41.3875 10.5625 43.5 15.7 43.5 21.75C43.5 25.6 42.6125 29.1 40.8375 32.25C39.0625 35.4 36.7 37.95 33.75 39.9V50.55C33.75 52.2 33.1625 53.6125 31.9875 54.7875C30.8125 55.9625 29.4 56.55 27.75 56.55C27.15 57.6 26.325 58.4375 25.275 59.0625C24.225 59.6875 23.05 60 21.75 60ZM15.75 50.55H27.75V47.85H15.75V50.55ZM15.75 44.85H27.75V42H15.75V44.85ZM24 36V27.9L29.025 22.875C29.475 22.425 29.7 21.9 29.7 21.3C29.7 20.7 29.475 20.175 29.025 19.725C28.575 19.275 28.05 19.05 27.45 19.05C26.85 19.05 26.325 19.275 25.875 19.725L21.75 23.85L17.625 19.725C17.175 19.275 16.65 19.05 16.05 19.05C15.45 19.05 14.925 19.275 14.475 19.725C14.025 20.175 13.8 20.7 13.8 21.3C13.8 21.9 14.025 22.425 14.475 22.875L19.5 27.9V36H24Z" fill="var(--fill-0, #94C9D1)"/>
</svg>
