<svg preserveAspectRatio="none" width="100%" height="100%" overflow="visible" style="display: block;" viewBox="0 0 80 44" fill="none" xmlns="http://www.w3.org/2000/svg">
<g id="ConsultantsCorner_Logo_Desktop">
<g id="Vector">
<path d="M0 6.30819C0 3.35419 1.582 1.49219 4.438 1.49219C5.572 1.49219 6.328 1.78619 6.832 2.29019L7.21 1.61819H7.784C7.784 1.61819 7.518 2.94819 7.518 3.55019V4.54419H6.832V3.94219C6.832 2.85019 5.922 2.08019 4.55 2.08019C2.268 2.08019 1.834 4.25019 1.834 6.36419C1.834 8.57619 2.31 10.5502 4.55 10.5502C5.992 10.5502 6.874 9.71019 7.168 8.33819L7.84 8.45019C7.518 9.87819 6.664 11.1382 4.354 11.1382C1.442 11.1382 0 9.12219 0 6.30819Z" fill="var(--fill-0, #1A5962)"/>
<path d="M0 6.30819C0 3.35419 1.582 1.49219 4.438 1.49219C5.572 1.49219 6.328 1.78619 6.832 2.29019L7.21 1.61819H7.784C7.784 1.61819 7.518 2.94819 7.518 3.55019V4.54419H6.832V3.94219C6.832 2.85019 5.922 2.08019 4.55 2.08019C2.268 2.08019 1.834 4.25019 1.834 6.36419C1.834 8.57619 2.31 10.5502 4.55 10.5502C5.992 10.5502 6.874 9.71019 7.168 8.33819L7.84 8.45019C7.518 9.87819 6.664 11.1382 4.354 11.1382C1.442 11.1382 0 9.12219 0 6.30819Z" fill="url(#paint0_linear_1344_47531)" fill-opacity="0.3"/>
<path d="M8.84275 7.82019C8.84275 5.66419 9.83675 4.41819 12.0068 4.41819C14.1908 4.41819 15.1428 5.60819 15.1428 7.73619C15.1428 9.97619 13.9528 11.1382 12.0068 11.1382C9.89275 11.1382 8.84275 9.90619 8.84275 7.82019ZM12.0068 10.6482C13.1547 10.6482 13.5048 9.62619 13.5048 7.73619C13.5048 5.88819 13.1547 4.90819 12.0068 4.90819C10.8728 4.90819 10.4808 5.91619 10.4808 7.82019C10.4808 9.65419 10.8588 10.6482 12.0068 10.6482Z" fill="var(--fill-0, #1A5962)"/>
<path d="M8.84275 7.82019C8.84275 5.66419 9.83675 4.41819 12.0068 4.41819C14.1908 4.41819 15.1428 5.60819 15.1428 7.73619C15.1428 9.97619 13.9528 11.1382 12.0068 11.1382C9.89275 11.1382 8.84275 9.90619 8.84275 7.82019ZM12.0068 10.6482C13.1547 10.6482 13.5048 9.62619 13.5048 7.73619C13.5048 5.88819 13.1547 4.90819 12.0068 4.90819C10.8728 4.90819 10.4808 5.91619 10.4808 7.82019C10.4808 9.65419 10.8588 10.6482 12.0068 10.6482Z" fill="url(#paint1_linear_1344_47531)" fill-opacity="0.3"/>
<path d="M16.0712 10.9422V10.3962H17.1492V5.16019H15.9452V4.61419H18.6052V6.18219H18.6332C18.7592 5.80419 19.2352 4.41819 20.9432 4.41819C22.2312 4.41819 22.9732 5.03419 22.9732 6.40619V10.3962H24.0372V10.9422H20.4952V10.3962H21.4192V6.39219C21.4192 5.46819 21.1812 5.13219 20.5652 5.13219C19.2352 5.13219 18.7032 7.23219 18.7032 8.42219V10.3962H19.6132V10.9422H16.0712Z" fill="var(--fill-0, #1A5962)"/>
<path d="M16.0712 10.9422V10.3962H17.1492V5.16019H15.9452V4.61419H18.6052V6.18219H18.6332C18.7592 5.80419 19.2352 4.41819 20.9432 4.41819C22.2312 4.41819 22.9732 5.03419 22.9732 6.40619V10.3962H24.0372V10.9422H20.4952V10.3962H21.4192V6.39219C21.4192 5.46819 21.1812 5.13219 20.5652 5.13219C19.2352 5.13219 18.7032 7.23219 18.7032 8.42219V10.3962H19.6132V10.9422H16.0712Z" fill="url(#paint2_linear_1344_47531)" fill-opacity="0.3"/>
<path d="M24.7585 11.0682C24.7585 11.0682 24.8425 10.3402 24.8425 9.73819V8.59019H25.4865V9.05219C25.4865 9.79419 26.2145 10.5922 27.3905 10.5922C28.0625 10.5922 28.5665 10.3262 28.5665 9.66819C28.5665 7.91819 24.8425 8.98219 24.8425 6.43419C24.8425 5.02019 26.0465 4.41819 27.2645 4.41819C28.0765 4.41819 28.5805 4.68419 28.9585 5.04819L29.1265 4.48819H29.7005C29.7005 4.48819 29.5185 5.45419 29.5185 5.81819V6.64419H28.8885V6.33619C28.8885 5.72019 28.3705 4.97819 27.2925 4.97819C26.6345 4.97819 26.1585 5.23019 26.1585 5.84619C26.1585 7.56819 29.9105 6.56019 29.9105 9.03819C29.9105 10.2842 28.9585 11.1382 27.4045 11.1382C26.3545 11.1382 25.7945 10.7462 25.5005 10.4382L25.3605 11.0682H24.7585Z" fill="var(--fill-0, #1A5962)"/>
<path d="M24.7585 11.0682C24.7585 11.0682 24.8425 10.3402 24.8425 9.73819V8.59019H25.4865V9.05219C25.4865 9.79419 26.2145 10.5922 27.3905 10.5922C28.0625 10.5922 28.5665 10.3262 28.5665 9.66819C28.5665 7.91819 24.8425 8.98219 24.8425 6.43419C24.8425 5.02019 26.0465 4.41819 27.2645 4.41819C28.0765 4.41819 28.5805 4.68419 28.9585 5.04819L29.1265 4.48819H29.7005C29.7005 4.48819 29.5185 5.45419 29.5185 5.81819V6.64419H28.8885V6.33619C28.8885 5.72019 28.3705 4.97819 27.2925 4.97819C26.6345 4.97819 26.1585 5.23019 26.1585 5.84619C26.1585 7.56819 29.9105 6.56019 29.9105 9.03819C29.9105 10.2842 28.9585 11.1382 27.4045 11.1382C26.3545 11.1382 25.7945 10.7462 25.5005 10.4382L25.3605 11.0682H24.7585Z" fill="url(#paint3_linear_1344_47531)" fill-opacity="0.3"/>
<path d="M31.7045 9.15019V5.16019H30.5145V4.61419H33.2725V9.23419C33.2725 10.0742 33.4825 10.4242 34.0565 10.4242C35.3725 10.4242 35.9045 8.33819 35.9045 7.13419V5.16019H34.8545V4.61419H37.4725V10.3962H38.5365V10.9422H36.0165V9.37419H35.9885C35.8485 9.75219 35.3865 11.1382 33.6785 11.1382C32.4325 11.1382 31.7045 10.5222 31.7045 9.15019Z" fill="var(--fill-0, #1A5962)"/>
<path d="M31.7045 9.15019V5.16019H30.5145V4.61419H33.2725V9.23419C33.2725 10.0742 33.4825 10.4242 34.0565 10.4242C35.3725 10.4242 35.9045 8.33819 35.9045 7.13419V5.16019H34.8545V4.61419H37.4725V10.3962H38.5365V10.9422H36.0165V9.37419H35.9885C35.8485 9.75219 35.3865 11.1382 33.6785 11.1382C32.4325 11.1382 31.7045 10.5222 31.7045 9.15019Z" fill="url(#paint4_linear_1344_47531)" fill-opacity="0.3"/>
<path d="M38.9403 10.9422V10.3962H40.0043V1.43619H38.8143V0.890191H41.5723V10.3962H42.6503V10.9422H38.9403Z" fill="var(--fill-0, #1A5962)"/>
<path d="M38.9403 10.9422V10.3962H40.0043V1.43619H38.8143V0.890191H41.5723V10.3962H42.6503V10.9422H38.9403Z" fill="url(#paint5_linear_1344_47531)" fill-opacity="0.3"/>
<path d="M44.0493 9.22019V5.16019H43.0412V4.61419H44.0633C44.3993 4.09619 44.7213 3.36819 44.8473 2.58419H45.6172V4.61419H47.3392V5.16019H45.6172V9.23419C45.6172 9.93419 45.7712 10.3122 46.2472 10.3122C46.5692 10.3122 46.8912 10.1442 47.1572 9.44419L47.7033 9.66819C47.4093 10.3402 47.0033 11.0822 45.7993 11.0822C44.6793 11.0822 44.0493 10.4242 44.0493 9.22019Z" fill="var(--fill-0, #1A5962)"/>
<path d="M44.0493 9.22019V5.16019H43.0412V4.61419H44.0633C44.3993 4.09619 44.7213 3.36819 44.8473 2.58419H45.6172V4.61419H47.3392V5.16019H45.6172V9.23419C45.6172 9.93419 45.7712 10.3122 46.2472 10.3122C46.5692 10.3122 46.8912 10.1442 47.1572 9.44419L47.7033 9.66819C47.4093 10.3402 47.0033 11.0822 45.7993 11.0822C44.6793 11.0822 44.0493 10.4242 44.0493 9.22019Z" fill="url(#paint6_linear_1344_47531)" fill-opacity="0.3"/>
<path d="M48.1881 9.47219C48.1881 7.90419 50.1901 7.35819 51.9961 7.35819V6.11219C51.9961 5.27219 51.7721 4.90819 50.9461 4.90819C50.1061 4.90819 49.8121 5.28619 49.8121 6.07019C49.8121 6.29419 49.8261 6.49019 49.8541 6.71419C48.8741 6.75619 48.4541 6.30819 48.4541 5.74819C48.4541 4.93619 49.3921 4.41819 51.0441 4.41819C52.8221 4.41819 53.5641 4.97819 53.5641 6.42019V9.86419C53.5641 10.2002 53.6621 10.3682 53.8441 10.3682C54.2221 10.3682 54.3901 9.75219 54.4461 9.54219L54.9921 9.71019C54.8801 10.2282 54.4601 11.0822 53.4661 11.0822C52.8081 11.0822 52.3181 10.7602 52.1921 10.0742H52.1641C51.8001 10.5922 51.1981 11.1382 50.1901 11.1382C49.1821 11.1382 48.1881 10.5922 48.1881 9.47219ZM49.8121 9.47219C49.8121 10.1162 50.0781 10.4662 50.5541 10.4662C51.2401 10.4662 51.9961 9.69619 51.9961 8.96819V7.94619C50.5121 7.94619 49.8121 8.40819 49.8121 9.47219Z" fill="var(--fill-0, #1A5962)"/>
<path d="M48.1881 9.47219C48.1881 7.90419 50.1901 7.35819 51.9961 7.35819V6.11219C51.9961 5.27219 51.7721 4.90819 50.9461 4.90819C50.1061 4.90819 49.8121 5.28619 49.8121 6.07019C49.8121 6.29419 49.8261 6.49019 49.8541 6.71419C48.8741 6.75619 48.4541 6.30819 48.4541 5.74819C48.4541 4.93619 49.3921 4.41819 51.0441 4.41819C52.8221 4.41819 53.5641 4.97819 53.5641 6.42019V9.86419C53.5641 10.2002 53.6621 10.3682 53.8441 10.3682C54.2221 10.3682 54.3901 9.75219 54.4461 9.54219L54.9921 9.71019C54.8801 10.2282 54.4601 11.0822 53.4661 11.0822C52.8081 11.0822 52.3181 10.7602 52.1921 10.0742H52.1641C51.8001 10.5922 51.1981 11.1382 50.1901 11.1382C49.1821 11.1382 48.1881 10.5922 48.1881 9.47219ZM49.8121 9.47219C49.8121 10.1162 50.0781 10.4662 50.5541 10.4662C51.2401 10.4662 51.9961 9.69619 51.9961 8.96819V7.94619C50.5121 7.94619 49.8121 8.40819 49.8121 9.47219Z" fill="url(#paint7_linear_1344_47531)" fill-opacity="0.3"/>
<path d="M55.2548 10.9422V10.3962H56.3328V5.16019H55.1288V4.61419H57.7888V6.18219H57.8168C57.9428 5.80419 58.4188 4.41819 60.1268 4.41819C61.4148 4.41819 62.1568 5.03419 62.1568 6.40619V10.3962H63.2208V10.9422H59.6788V10.3962H60.6028V6.39219C60.6028 5.46819 60.3648 5.13219 59.7488 5.13219C58.4188 5.13219 57.8868 7.23219 57.8868 8.42219V10.3962H58.7968V10.9422H55.2548Z" fill="var(--fill-0, #1A5962)"/>
<path d="M55.2548 10.9422V10.3962H56.3328V5.16019H55.1288V4.61419H57.7888V6.18219H57.8168C57.9428 5.80419 58.4188 4.41819 60.1268 4.41819C61.4148 4.41819 62.1568 5.03419 62.1568 6.40619V10.3962H63.2208V10.9422H59.6788V10.3962H60.6028V6.39219C60.6028 5.46819 60.3648 5.13219 59.7488 5.13219C58.4188 5.13219 57.8868 7.23219 57.8868 8.42219V10.3962H58.7968V10.9422H55.2548Z" fill="url(#paint8_linear_1344_47531)" fill-opacity="0.3"/>
<path d="M64.516 9.22019V5.16019H63.508V4.61419H64.53C64.866 4.09619 65.188 3.36819 65.314 2.58419H66.084V4.61419H67.806V5.16019H66.084V9.23419C66.084 9.93419 66.2381 10.3122 66.7141 10.3122C67.0361 10.3122 67.358 10.1442 67.624 9.44419L68.17 9.66819C67.876 10.3402 67.47 11.0822 66.266 11.0822C65.146 11.0822 64.516 10.4242 64.516 9.22019Z" fill="var(--fill-0, #1A5962)"/>
<path d="M64.516 9.22019V5.16019H63.508V4.61419H64.53C64.866 4.09619 65.188 3.36819 65.314 2.58419H66.084V4.61419H67.806V5.16019H66.084V9.23419C66.084 9.93419 66.2381 10.3122 66.7141 10.3122C67.0361 10.3122 67.358 10.1442 67.624 9.44419L68.17 9.66819C67.876 10.3402 67.47 11.0822 66.266 11.0822C65.146 11.0822 64.516 10.4242 64.516 9.22019Z" fill="url(#paint9_linear_1344_47531)" fill-opacity="0.3"/>
<path d="M69.2569 4.95019L68.9489 4.50219C69.6769 4.05419 70.1809 3.53619 70.1809 2.94819C70.1809 2.41619 69.7329 2.01019 68.8789 1.87019C68.9629 1.25419 69.3129 0.750191 70.0129 0.750191C70.7269 0.750191 71.1609 1.39419 71.1609 2.13619C71.1609 3.36819 70.4189 4.22219 69.2569 4.95019Z" fill="var(--fill-0, #1A5962)"/>
<path d="M69.2569 4.95019L68.9489 4.50219C69.6769 4.05419 70.1809 3.53619 70.1809 2.94819C70.1809 2.41619 69.7329 2.01019 68.8789 1.87019C68.9629 1.25419 69.3129 0.750191 70.0129 0.750191C70.7269 0.750191 71.1609 1.39419 71.1609 2.13619C71.1609 3.36819 70.4189 4.22219 69.2569 4.95019Z" fill="url(#paint10_linear_1344_47531)" fill-opacity="0.3"/>
<path d="M72.0768 11.0682C72.0768 11.0682 72.1608 10.3402 72.1608 9.73819V8.59019H72.8048V9.05219C72.8048 9.79419 73.5328 10.5922 74.7088 10.5922C75.3808 10.5922 75.8848 10.3262 75.8848 9.66819C75.8848 7.91819 72.1608 8.98219 72.1608 6.43419C72.1608 5.02019 73.3648 4.41819 74.5828 4.41819C75.3948 4.41819 75.8988 4.68419 76.2768 5.04819L76.4448 4.48819H77.0188C77.0188 4.48819 76.8368 5.45419 76.8368 5.81819V6.64419H76.2068V6.33619C76.2068 5.72019 75.6888 4.97819 74.6108 4.97819C73.9528 4.97819 73.4768 5.23019 73.4768 5.84619C73.4768 7.56819 77.2288 6.56019 77.2288 9.03819C77.2288 10.2842 76.2768 11.1382 74.7228 11.1382C73.6728 11.1382 73.1128 10.7462 72.8188 10.4382L72.6788 11.0682H72.0768Z" fill="var(--fill-0, #1A5962)"/>
<path d="M72.0768 11.0682C72.0768 11.0682 72.1608 10.3402 72.1608 9.73819V8.59019H72.8048V9.05219C72.8048 9.79419 73.5328 10.5922 74.7088 10.5922C75.3808 10.5922 75.8848 10.3262 75.8848 9.66819C75.8848 7.91819 72.1608 8.98219 72.1608 6.43419C72.1608 5.02019 73.3648 4.41819 74.5828 4.41819C75.3948 4.41819 75.8988 4.68419 76.2768 5.04819L76.4448 4.48819H77.0188C77.0188 4.48819 76.8368 5.45419 76.8368 5.81819V6.64419H76.2068V6.33619C76.2068 5.72019 75.6888 4.97819 74.6108 4.97819C73.9528 4.97819 73.4768 5.23019 73.4768 5.84619C73.4768 7.56819 77.2288 6.56019 77.2288 9.03819C77.2288 10.2842 76.2768 11.1382 74.7228 11.1382C73.6728 11.1382 73.1128 10.7462 72.8188 10.4382L72.6788 11.0682H72.0768Z" fill="url(#paint11_linear_1344_47531)" fill-opacity="0.3"/>
<path d="M0.144406 24.6023C0.144406 22.6492 0.305539 21.2137 0.627805 20.2957C0.95007 19.3777 1.30163 18.7039 1.68249 18.2742C2.51257 17.3367 3.72351 16.8631 5.3153 16.8533C7.54187 16.8631 8.97741 17.8445 9.62195 19.7977C9.99304 20.9207 10.1786 22.4148 10.1786 24.2801V27.1365H7.20495V24.2654C7.20495 22.615 7.11218 21.5018 6.92663 20.9256C6.75085 20.3397 6.53601 19.9539 6.2821 19.7684C6.0282 19.5731 5.70593 19.4754 5.3153 19.4754C4.50476 19.4754 3.94323 19.8611 3.63073 20.6326C3.328 21.3943 3.17663 22.6004 3.17663 24.2508V35.4129C3.17663 37.366 3.31335 38.7332 3.58679 39.5145C3.86999 40.2859 4.4071 40.6717 5.19812 40.6717C5.9989 40.6717 6.53113 40.2811 6.7948 39.4998C7.06823 38.7186 7.20495 37.3514 7.20495 35.3982V32.5418H10.2079V35.3689C10.2079 38.074 9.83679 40.0662 9.0946 41.3455C8.36218 42.615 7.078 43.2498 5.24206 43.2498C3.40613 43.2498 2.09753 42.5955 1.31628 41.2869C0.535031 39.9686 0.144406 37.9861 0.144406 35.3397V24.6023Z" fill="var(--fill-0, #1A5962)"/>
<path d="M0.144406 24.6023C0.144406 22.6492 0.305539 21.2137 0.627805 20.2957C0.95007 19.3777 1.30163 18.7039 1.68249 18.2742C2.51257 17.3367 3.72351 16.8631 5.3153 16.8533C7.54187 16.8631 8.97741 17.8445 9.62195 19.7977C9.99304 20.9207 10.1786 22.4148 10.1786 24.2801V27.1365H7.20495V24.2654C7.20495 22.615 7.11218 21.5018 6.92663 20.9256C6.75085 20.3397 6.53601 19.9539 6.2821 19.7684C6.0282 19.5731 5.70593 19.4754 5.3153 19.4754C4.50476 19.4754 3.94323 19.8611 3.63073 20.6326C3.328 21.3943 3.17663 22.6004 3.17663 24.2508V35.4129C3.17663 37.366 3.31335 38.7332 3.58679 39.5145C3.86999 40.2859 4.4071 40.6717 5.19812 40.6717C5.9989 40.6717 6.53113 40.2811 6.7948 39.4998C7.06823 38.7186 7.20495 37.3514 7.20495 35.3982V32.5418H10.2079V35.3689C10.2079 38.074 9.83679 40.0662 9.0946 41.3455C8.36218 42.615 7.078 43.2498 5.24206 43.2498C3.40613 43.2498 2.09753 42.5955 1.31628 41.2869C0.535031 39.9686 0.144406 37.9861 0.144406 35.3397V24.6023Z" fill="url(#paint12_linear_1344_47531)" fill-opacity="0.3"/>
<path d="M13.5917 24.1629C13.5917 21.2332 14.119 19.2215 15.1737 18.1277C16.0038 17.2684 17.2098 16.8387 18.7919 16.8387C21.0966 16.8387 22.5712 17.7859 23.2157 19.6805C23.5966 20.8035 23.787 22.2977 23.787 24.1629V35.5301C23.787 38.2156 23.411 40.1736 22.6591 41.4041C21.9071 42.6248 20.5887 43.2352 18.704 43.2352C16.829 43.2352 15.5057 42.6199 14.7343 41.3895C13.9725 40.159 13.5917 38.2059 13.5917 35.5301V24.1629ZM20.7548 23.9871C20.7548 22.3367 20.6229 21.1697 20.3592 20.4861C20.0956 19.7928 19.5634 19.4461 18.7626 19.4461C17.9618 19.4461 17.4051 19.7977 17.0926 20.5008C16.7801 21.2039 16.6239 22.3611 16.6239 23.9725V35.5594C16.6239 37.5223 16.7606 38.8602 17.0341 39.5731C17.3075 40.2762 17.8592 40.6277 18.6893 40.6277C19.5194 40.6277 20.0712 40.2713 20.3446 39.5584C20.618 38.8357 20.7548 37.5027 20.7548 35.5594V23.9871Z" fill="var(--fill-0, #1A5962)"/>
<path d="M13.5917 24.1629C13.5917 21.2332 14.119 19.2215 15.1737 18.1277C16.0038 17.2684 17.2098 16.8387 18.7919 16.8387C21.0966 16.8387 22.5712 17.7859 23.2157 19.6805C23.5966 20.8035 23.787 22.2977 23.787 24.1629V35.5301C23.787 38.2156 23.411 40.1736 22.6591 41.4041C21.9071 42.6248 20.5887 43.2352 18.704 43.2352C16.829 43.2352 15.5057 42.6199 14.7343 41.3895C13.9725 40.159 13.5917 38.2059 13.5917 35.5301V24.1629ZM20.7548 23.9871C20.7548 22.3367 20.6229 21.1697 20.3592 20.4861C20.0956 19.7928 19.5634 19.4461 18.7626 19.4461C17.9618 19.4461 17.4051 19.7977 17.0926 20.5008C16.7801 21.2039 16.6239 22.3611 16.6239 23.9725V35.5594C16.6239 37.5223 16.7606 38.8602 17.0341 39.5731C17.3075 40.2762 17.8592 40.6277 18.6893 40.6277C19.5194 40.6277 20.0712 40.2713 20.3446 39.5584C20.618 38.8357 20.7548 37.5027 20.7548 35.5594V23.9871Z" fill="url(#paint13_linear_1344_47531)" fill-opacity="0.3"/>
<path d="M27.7128 17.1609H33.118C34.6512 17.1609 35.7548 17.4783 36.4286 18.1131C37.1024 18.7479 37.5077 19.827 37.6444 21.3504C37.703 21.9754 37.7323 22.952 37.7323 24.2801C37.7323 25.5984 37.5565 26.7068 37.205 27.6053C36.8632 28.5037 36.2528 29.0848 35.3739 29.3484C36.0184 29.4559 36.5067 29.7977 36.8387 30.3738C37.1708 30.9402 37.4051 31.8484 37.5419 33.0984C37.6786 34.3387 37.7469 36.1893 37.7469 38.6502C37.7469 41.1014 37.8251 42.532 37.9813 42.9422H34.9637C34.8075 42.6297 34.7294 39.7342 34.7294 34.2557C34.7294 32.41 34.5487 31.3406 34.1874 31.0477C33.826 30.7449 33.2792 30.5936 32.5467 30.5936L30.745 30.491V42.9422H27.7128V17.1609ZM34.7294 23.4744C34.7294 21.492 34.5487 20.3445 34.1874 20.032C33.8358 19.7195 33.3231 19.5633 32.6493 19.5633H30.745V28.2645H32.6786C33.2645 28.2645 33.6942 28.1522 33.9676 27.9275C34.2411 27.7029 34.4364 27.2732 34.5536 26.6385C34.6708 26.0037 34.7294 25.0076 34.7294 23.6502V23.4744Z" fill="var(--fill-0, #1A5962)"/>
<path d="M27.7128 17.1609H33.118C34.6512 17.1609 35.7548 17.4783 36.4286 18.1131C37.1024 18.7479 37.5077 19.827 37.6444 21.3504C37.703 21.9754 37.7323 22.952 37.7323 24.2801C37.7323 25.5984 37.5565 26.7068 37.205 27.6053C36.8632 28.5037 36.2528 29.0848 35.3739 29.3484C36.0184 29.4559 36.5067 29.7977 36.8387 30.3738C37.1708 30.9402 37.4051 31.8484 37.5419 33.0984C37.6786 34.3387 37.7469 36.1893 37.7469 38.6502C37.7469 41.1014 37.8251 42.532 37.9813 42.9422H34.9637C34.8075 42.6297 34.7294 39.7342 34.7294 34.2557C34.7294 32.41 34.5487 31.3406 34.1874 31.0477C33.826 30.7449 33.2792 30.5936 32.5467 30.5936L30.745 30.491V42.9422H27.7128V17.1609ZM34.7294 23.4744C34.7294 21.492 34.5487 20.3445 34.1874 20.032C33.8358 19.7195 33.3231 19.5633 32.6493 19.5633H30.745V28.2645H32.6786C33.2645 28.2645 33.6942 28.1522 33.9676 27.9275C34.2411 27.7029 34.4364 27.2732 34.5536 26.6385C34.6708 26.0037 34.7294 25.0076 34.7294 23.6502V23.4744Z" fill="url(#paint14_linear_1344_47531)" fill-opacity="0.3"/>
<path d="M49.6415 17.1609H52.3221V42.9422H50.0956L44.3094 25.2469L44.4852 31.7508V42.9422H41.6874V17.1609H43.9725L49.9491 34.7098L49.6415 27.2537V17.1609Z" fill="var(--fill-0, #1A5962)"/>
<path d="M49.6415 17.1609H52.3221V42.9422H50.0956L44.3094 25.2469L44.4852 31.7508V42.9422H41.6874V17.1609H43.9725L49.9491 34.7098L49.6415 27.2537V17.1609Z" fill="url(#paint15_linear_1344_47531)" fill-opacity="0.3"/>
<path d="M56.5409 17.1609H64.246V19.6805H59.5731V28.4988H63.9969V31.0184H59.5731V40.4227H64.3046V42.9422H56.5409V17.1609Z" fill="var(--fill-0, #1A5962)"/>
<path d="M56.5409 17.1609H64.246V19.6805H59.5731V28.4988H63.9969V31.0184H59.5731V40.4227H64.3046V42.9422H56.5409V17.1609Z" fill="url(#paint16_linear_1344_47531)" fill-opacity="0.3"/>
<path d="M67.8495 17.1609H73.2548C74.788 17.1609 75.8915 17.4783 76.5653 18.1131C77.2391 18.7479 77.6444 19.827 77.7811 21.3504C77.8397 21.9754 77.869 22.952 77.869 24.2801C77.869 25.5984 77.6932 26.7068 77.3417 27.6053C76.9999 28.5037 76.3895 29.0848 75.5106 29.3484C76.1552 29.4559 76.6434 29.7977 76.9755 30.3738C77.3075 30.9402 77.5419 31.8484 77.6786 33.0984C77.8153 34.3387 77.8837 36.1893 77.8837 38.6502C77.8837 41.1014 77.9618 42.532 78.118 42.9422H75.1005C74.9442 42.6297 74.8661 39.7342 74.8661 34.2557C74.8661 32.41 74.6854 31.3406 74.3241 31.0477C73.9628 30.7449 73.4159 30.5936 72.6835 30.5936L70.8817 30.491V42.9422H67.8495V17.1609ZM74.8661 23.4744C74.8661 21.492 74.6854 20.3445 74.3241 20.032C73.9725 19.7195 73.4598 19.5633 72.786 19.5633H70.8817V28.2645H72.8153C73.4012 28.2645 73.8309 28.1522 74.1044 27.9275C74.3778 27.7029 74.5731 27.2732 74.6903 26.6385C74.8075 26.0037 74.8661 25.0076 74.8661 23.6502V23.4744Z" fill="var(--fill-0, #1A5962)"/>
<path d="M67.8495 17.1609H73.2548C74.788 17.1609 75.8915 17.4783 76.5653 18.1131C77.2391 18.7479 77.6444 19.827 77.7811 21.3504C77.8397 21.9754 77.869 22.952 77.869 24.2801C77.869 25.5984 77.6932 26.7068 77.3417 27.6053C76.9999 28.5037 76.3895 29.0848 75.5106 29.3484C76.1552 29.4559 76.6434 29.7977 76.9755 30.3738C77.3075 30.9402 77.5419 31.8484 77.6786 33.0984C77.8153 34.3387 77.8837 36.1893 77.8837 38.6502C77.8837 41.1014 77.9618 42.532 78.118 42.9422H75.1005C74.9442 42.6297 74.8661 39.7342 74.8661 34.2557C74.8661 32.41 74.6854 31.3406 74.3241 31.0477C73.9628 30.7449 73.4159 30.5936 72.6835 30.5936L70.8817 30.491V42.9422H67.8495V17.1609ZM74.8661 23.4744C74.8661 21.492 74.6854 20.3445 74.3241 20.032C73.9725 19.7195 73.4598 19.5633 72.786 19.5633H70.8817V28.2645H72.8153C73.4012 28.2645 73.8309 28.1522 74.1044 27.9275C74.3778 27.7029 74.5731 27.2732 74.6903 26.6385C74.8075 26.0037 74.8661 25.0076 74.8661 23.6502V23.4744Z" fill="url(#paint17_linear_1344_47531)" fill-opacity="0.3"/>
</g>
</g>
<defs>
<linearGradient id="paint0_linear_1344_47531" x1="71.3281" y1="42.9426" x2="0.328127" y2="0.942576" gradientUnits="userSpaceOnUse">
<stop stop-color="#6BF1A0"/>
<stop offset="1" stop-color="#33A962" stop-opacity="0"/>
</linearGradient>
<linearGradient id="paint1_linear_1344_47531" x1="71.3281" y1="42.9426" x2="0.328127" y2="0.942576" gradientUnits="userSpaceOnUse">
<stop stop-color="#6BF1A0"/>
<stop offset="1" stop-color="#33A962" stop-opacity="0"/>
</linearGradient>
<linearGradient id="paint2_linear_1344_47531" x1="71.3281" y1="42.9426" x2="0.328127" y2="0.942576" gradientUnits="userSpaceOnUse">
<stop stop-color="#6BF1A0"/>
<stop offset="1" stop-color="#33A962" stop-opacity="0"/>
</linearGradient>
<linearGradient id="paint3_linear_1344_47531" x1="71.3281" y1="42.9426" x2="0.328127" y2="0.942576" gradientUnits="userSpaceOnUse">
<stop stop-color="#6BF1A0"/>
<stop offset="1" stop-color="#33A962" stop-opacity="0"/>
</linearGradient>
<linearGradient id="paint4_linear_1344_47531" x1="71.3281" y1="42.9426" x2="0.328127" y2="0.942576" gradientUnits="userSpaceOnUse">
<stop stop-color="#6BF1A0"/>
<stop offset="1" stop-color="#33A962" stop-opacity="0"/>
</linearGradient>
<linearGradient id="paint5_linear_1344_47531" x1="71.3281" y1="42.9426" x2="0.328127" y2="0.942576" gradientUnits="userSpaceOnUse">
<stop stop-color="#6BF1A0"/>
<stop offset="1" stop-color="#33A962" stop-opacity="0"/>
</linearGradient>
<linearGradient id="paint6_linear_1344_47531" x1="71.3281" y1="42.9426" x2="0.328127" y2="0.942576" gradientUnits="userSpaceOnUse">
<stop stop-color="#6BF1A0"/>
<stop offset="1" stop-color="#33A962" stop-opacity="0"/>
</linearGradient>
<linearGradient id="paint7_linear_1344_47531" x1="71.3281" y1="42.9426" x2="0.328127" y2="0.942576" gradientUnits="userSpaceOnUse">
<stop stop-color="#6BF1A0"/>
<stop offset="1" stop-color="#33A962" stop-opacity="0"/>
</linearGradient>
<linearGradient id="paint8_linear_1344_47531" x1="71.3281" y1="42.9426" x2="0.328127" y2="0.942576" gradientUnits="userSpaceOnUse">
<stop stop-color="#6BF1A0"/>
<stop offset="1" stop-color="#33A962" stop-opacity="0"/>
</linearGradient>
<linearGradient id="paint9_linear_1344_47531" x1="71.3281" y1="42.9426" x2="0.328127" y2="0.942576" gradientUnits="userSpaceOnUse">
<stop stop-color="#6BF1A0"/>
<stop offset="1" stop-color="#33A962" stop-opacity="0"/>
</linearGradient>
<linearGradient id="paint10_linear_1344_47531" x1="71.3281" y1="42.9426" x2="0.328127" y2="0.942576" gradientUnits="userSpaceOnUse">
<stop stop-color="#6BF1A0"/>
<stop offset="1" stop-color="#33A962" stop-opacity="0"/>
</linearGradient>
<linearGradient id="paint11_linear_1344_47531" x1="71.3281" y1="42.9426" x2="0.328127" y2="0.942576" gradientUnits="userSpaceOnUse">
<stop stop-color="#6BF1A0"/>
<stop offset="1" stop-color="#33A962" stop-opacity="0"/>
</linearGradient>
<linearGradient id="paint12_linear_1344_47531" x1="71.3281" y1="42.9426" x2="0.328127" y2="0.942576" gradientUnits="userSpaceOnUse">
<stop stop-color="#6BF1A0"/>
<stop offset="1" stop-color="#33A962" stop-opacity="0"/>
</linearGradient>
<linearGradient id="paint13_linear_1344_47531" x1="71.3281" y1="42.9426" x2="0.328127" y2="0.942576" gradientUnits="userSpaceOnUse">
<stop stop-color="#6BF1A0"/>
<stop offset="1" stop-color="#33A962" stop-opacity="0"/>
</linearGradient>
<linearGradient id="paint14_linear_1344_47531" x1="71.3281" y1="42.9426" x2="0.328127" y2="0.942576" gradientUnits="userSpaceOnUse">
<stop stop-color="#6BF1A0"/>
<stop offset="1" stop-color="#33A962" stop-opacity="0"/>
</linearGradient>
<linearGradient id="paint15_linear_1344_47531" x1="71.3281" y1="42.9426" x2="0.328127" y2="0.942576" gradientUnits="userSpaceOnUse">
<stop stop-color="#6BF1A0"/>
<stop offset="1" stop-color="#33A962" stop-opacity="0"/>
</linearGradient>
<linearGradient id="paint16_linear_1344_47531" x1="71.3281" y1="42.9426" x2="0.328127" y2="0.942576" gradientUnits="userSpaceOnUse">
<stop stop-color="#6BF1A0"/>
<stop offset="1" stop-color="#33A962" stop-opacity="0"/>
</linearGradient>
<linearGradient id="paint17_linear_1344_47531" x1="71.3281" y1="42.9426" x2="0.328127" y2="0.942576" gradientUnits="userSpaceOnUse">
<stop stop-color="#6BF1A0"/>
<stop offset="1" stop-color="#33A962" stop-opacity="0"/>
</linearGradient>
</defs>
</svg>
