<svg preserveAspectRatio="none" width="100%" height="100%" overflow="visible" style="display: block;" viewBox="0 0 392.768 388.471" fill="none" xmlns="http://www.w3.org/2000/svg">
<path id="Line Back" d="M206.274 0.932617C222.37 1.1834 238.973 4.58906 251.327 14.6719C261.882 23.2862 269.701 35.7575 276.843 48.9893C283.951 62.1597 290.412 76.1432 298.185 87.4678C309.931 104.58 321.775 121.143 331.874 139.231C345.476 163.595 361.095 189.498 372.998 216.575C384.896 243.64 393.036 271.786 391.711 300.569C390.217 332.97 373.73 366.059 344.873 379.936C322.435 390.719 295.795 388.789 271.642 381.979H271.643C259.568 378.572 247.849 374.043 236.116 369.41C224.396 364.782 212.654 360.048 200.594 356.266C152.505 341.184 101.207 341.714 51.1406 339.195C42.5497 338.763 33.4083 337.885 25.2646 335.326C17.1295 332.77 10.0639 328.561 5.52148 321.517C-1.67232 310.362 0.183775 295.029 6.80469 283.225C13.4307 271.411 23.9948 262.42 34.3994 253.45C38.2538 250.128 42.6127 246.207 43.7783 240.818L43.7793 240.817C44.6763 236.667 43.485 232.428 42.1709 228.68C38.9955 219.623 34.5258 210.931 30.6113 202.263C26.6795 193.556 23.2767 184.814 22.1006 175.479C19.4903 154.752 28.2769 134.26 38.6387 115.833C73.7055 53.4698 135.486 -0.169695 206.274 0.932617Z" stroke="var(--stroke-0, #F2C75C)" stroke-width="1.832"/>
</svg>
