<svg preserveAspectRatio="none" width="100%" height="100%" overflow="visible" style="display: block;" viewBox="0 0 61.8706 58.7206" fill="none" xmlns="http://www.w3.org/2000/svg">
<path id="celebration" d="M0.220588 54.6L11.5456 23.1C11.7956 22.45 12.1831 21.95 12.7081 21.6C13.2331 21.25 13.7956 21.075 14.3956 21.075C14.7956 21.075 15.1706 21.15 15.5206 21.3C15.8706 21.45 16.1956 21.675 16.4956 21.975L36.7456 42.225C37.0456 42.525 37.2706 42.85 37.4206 43.2C37.5706 43.55 37.6456 43.925 37.6456 44.325C37.6456 44.925 37.4706 45.4875 37.1206 46.0125C36.7706 46.5375 36.2706 46.925 35.6206 47.175L4.12059 58.5C3.52059 58.75 2.94559 58.7875 2.39559 58.6125C1.84559 58.4375 1.37059 58.15 0.970588 57.75C0.570588 57.35 0.283088 56.875 0.108088 56.325C-0.0669118 55.775 -0.0294118 55.2 0.220588 54.6ZM61.1956 15.675C60.7456 16.125 60.2206 16.35 59.6206 16.35C59.0206 16.35 58.4956 16.125 58.0456 15.675L57.8206 15.45C57.1206 14.75 56.2456 14.4 55.1956 14.4C54.1456 14.4 53.2706 14.75 52.5706 15.45L37.3456 30.675C36.8956 31.125 36.3706 31.35 35.7706 31.35C35.1706 31.35 34.6456 31.125 34.1956 30.675C33.7456 30.225 33.5206 29.7 33.5206 29.1C33.5206 28.5 33.7456 27.975 34.1956 27.525L49.4206 12.3C51.0206 10.7 52.9456 9.9 55.1956 9.9C57.4456 9.9 59.3706 10.7 60.9706 12.3L61.1956 12.525C61.6456 12.975 61.8706 13.5 61.8706 14.1C61.8706 14.7 61.6456 15.225 61.1956 15.675ZM22.0456 6.675C22.4956 6.225 23.0206 6 23.6206 6C24.2206 6 24.7456 6.225 25.1956 6.675L25.5706 7.05C27.1706 8.65 27.9706 10.55 27.9706 12.75C27.9706 14.95 27.1706 16.85 25.5706 18.45L25.3456 18.675C24.8956 19.125 24.3706 19.35 23.7706 19.35C23.1706 19.35 22.6456 19.125 22.1956 18.675C21.7456 18.225 21.5206 17.7 21.5206 17.1C21.5206 16.5 21.7456 15.975 22.1956 15.525L22.4206 15.3C23.1206 14.6 23.4706 13.75 23.4706 12.75C23.4706 11.75 23.1206 10.9 22.4206 10.2L22.0456 9.825C21.5956 9.375 21.3706 8.85 21.3706 8.25C21.3706 7.65 21.5956 7.125 22.0456 6.675ZM34.1956 0.675C34.6456 0.225 35.1706 0 35.7706 0C36.3706 0 36.8956 0.225 37.3456 0.675L40.5706 3.9C42.1706 5.5 42.9706 7.425 42.9706 9.675C42.9706 11.925 42.1706 13.85 40.5706 15.45L31.3456 24.675C30.8956 25.125 30.3706 25.35 29.7706 25.35C29.1706 25.35 28.6456 25.125 28.1956 24.675C27.7456 24.225 27.5206 23.7 27.5206 23.1C27.5206 22.5 27.7456 21.975 28.1956 21.525L37.4206 12.3C38.1206 11.6 38.4706 10.725 38.4706 9.675C38.4706 8.625 38.1206 7.75 37.4206 7.05L34.1956 3.825C33.7456 3.375 33.5206 2.85 33.5206 2.25C33.5206 1.65 33.7456 1.125 34.1956 0.675ZM58.1956 36.675C57.7456 37.125 57.2206 37.35 56.6206 37.35C56.0206 37.35 55.4956 37.125 55.0456 36.675L51.8206 33.45C51.1206 32.75 50.2456 32.4 49.1956 32.4C48.1456 32.4 47.2706 32.75 46.5706 33.45L43.3456 36.675C42.8956 37.125 42.3706 37.35 41.7706 37.35C41.1706 37.35 40.6456 37.125 40.1956 36.675C39.7456 36.225 39.5206 35.7 39.5206 35.1C39.5206 34.5 39.7456 33.975 40.1956 33.525L43.4206 30.3C45.0206 28.7 46.9456 27.9 49.1956 27.9C51.4456 27.9 53.3706 28.7 54.9706 30.3L58.1956 33.525C58.6456 33.975 58.8706 34.5 58.8706 35.1C58.8706 35.7 58.6456 36.225 58.1956 36.675Z" fill="var(--fill-0, #94C9D1)"/>
</svg>
